<svg xmlns="http://www.w3.org/2000/svg" viewBox="135 80 105 115" preserveAspectRatio="xMidYMid meet">
  <defs>
    <clipPath id="a"><path d="M 141.480469 86.6875 L 233.730469 86.6875 L 233.730469 187.9375 L 141.480469 187.9375 Z"/></clipPath>
    <clipPath id="b"><path d="M 149.320312 94.039062 L 225.671875 94.039062 L 225.671875 182.253906 L 149.320312 182.253906 Z"/></clipPath>
    <clipPath id="c"><path d="M 163 111.125 L 212.25 111.125 L 212.25 160.625 L 163 160.625 Z"/></clipPath>
  </defs>
  <g clip-path="url(#a)">
    <path fill="#ffffff" d="M 187.492188 86.699219 C 182.710938 90.761719 175.03125 95.664062 163.835938 98.585938 C 156.132812 100.585938 147.808594 101.007812 142.171875 101.007812 C 141.921875 101.007812 141.703125 101.007812 141.480469 101.007812 C 142.207031 112.875 144.824219 141.660156 153.113281 156.539062 C 163.042969 174.34375 180.785156 184.757812 187.492188 188.234375 C 187.5 188.234375 187.5 188.234375 187.5 188.234375 C 194.21875 184.773438 211.917969 174.40625 221.886719 156.539062 C 230.1875 141.660156 232.808594 112.875 233.539062 101.007812 C 233.316406 101.007812 233.074219 101.007812 232.832031 101.007812 C 227.210938 101.007812 218.875 100.601562 211.183594 98.585938 C 199.976562 95.664062 192.300781 90.761719 187.492188 86.699219 Z"/>
  </g>
  <g clip-path="url(#b)">
    <path fill="#5f4fe8" d="M 219.921875 134.414062 C 218.164062 143.527344 214.828125 151.636719 210 158.515625 C 204.457031 166.410156 196.859375 172.769531 187.394531 177.449219 C 178.023438 172.773438 170.488281 166.417969 164.984375 158.527344 C 160.179688 151.644531 156.851562 143.53125 155.09375 134.414062 C 153.5 126.171875 153.511719 118.632812 153.800781 113.761719 C 153.898438 112.148438 154.027344 110.726562 154.160156 109.535156 C 156.675781 109.09375 160.035156 108.441406 163.789062 107.53125 C 170.390625 105.933594 179.523438 103.203125 187.53125 98.988281 C 195.539062 103.207031 204.652344 105.933594 211.238281 107.539062 C 214.984375 108.449219 218.304688 109.097656 220.800781 109.535156 C 220.941406 110.726562 221.074219 112.152344 221.175781 113.777344 C 221.476562 118.648438 221.507812 126.175781 219.921875 134.414062 Z M 225.5 113.511719 C 225.28125 109.953125 224.898438 107.253906 224.652344 105.769531 C 222.472656 105.449219 217.882812 104.695312 212.265625 103.328125 C 205.355469 101.644531 195.574219 98.6875 187.53125 94.039062 C 179.496094 98.683594 169.695312 101.640625 162.765625 103.320312 C 157.160156 104.679688 152.492188 105.445312 150.296875 105.769531 C 150.058594 107.242188 149.6875 109.917969 149.476562 113.503906 C 149.171875 118.625 149.160156 126.550781 150.835938 135.234375 C 152.710938 144.953125 156.277344 153.625 161.429688 161.007812 C 167.730469 170.039062 176.460938 177.183594 187.386719 182.253906 C 198.40625 177.183594 207.207031 170.039062 213.546875 161.003906 C 218.730469 153.621094 222.304688 144.953125 224.175781 135.234375 C 225.851562 126.550781 225.820312 118.628906 225.5 113.511719"/>
  </g>
  <g clip-path="url(#c)">
    <path fill="#5f4fe8" d="M 189.625 129.816406 C 188.324219 129.441406 187.027344 129.460938 185.738281 129.871094 C 185.691406 129.886719 185.640625 129.859375 185.625 129.8125 C 185.367188 129.054688 185.089844 128.082031 184.796875 126.890625 C 184.308594 124.921875 183.960938 123.226562 183.757812 121.808594 C 183.613281 120.835938 183.566406 119.757812 183.605469 118.566406 C 183.648438 117.292969 183.902344 116 184.363281 114.675781 C 184.835938 113.328125 185.804688 111.519531 187.425781 111.289062 C 188.523438 111.136719 189.523438 111.820312 190.144531 112.691406 C 191.144531 114.09375 191.667969 115.941406 191.867188 117.660156 C 192.007812 118.90625 191.984375 120.195312 191.796875 121.535156 C 191.554688 123.230469 191.171875 124.953125 190.644531 126.699219 C 190.414062 127.460938 190.101562 128.484375 189.703125 129.773438 C 189.691406 129.804688 189.660156 129.824219 189.625 129.816406 Z M 182.070312 132.761719 C 182.0625 132.777344 182.046875 132.78125 182.035156 132.773438 C 182.035156 132.773438 182.03125 132.773438 182.03125 132.773438 C 179.269531 130.960938 176.660156 129.253906 174.34375 127.136719 C 174.070312 126.882812 173.773438 126.566406 173.460938 126.183594 C 172.617188 125.15625 171.875 124.019531 171.238281 122.769531 C 170.855469 122.023438 170.609375 121.386719 170.5 120.855469 C 170.355469 120.160156 170.320312 119.476562 170.390625 118.804688 C 170.539062 117.351562 171.585938 116.625 172.988281 116.636719 C 173.96875 116.648438 174.828125 116.90625 175.722656 117.363281 C 176.863281 117.949219 177.832031 118.664062 178.730469 119.5625 C 180.144531 120.976562 181.328125 122.476562 182.269531 124.058594 C 183.292969 125.773438 184.332031 127.722656 185.390625 129.90625 C 185.40625 129.941406 185.390625 129.984375 185.355469 130 C 185.355469 130 185.355469 130.003906 185.351562 130.003906 C 183.9375 130.542969 182.847656 131.464844 182.070312 132.761719 Z M 193.523438 132.847656 C 193.5 132.863281 193.464844 132.859375 193.449219 132.835938 C 193.449219 132.835938 193.449219 132.832031 193.445312 132.832031 C 192.679688 131.527344 191.414062 130.386719 189.953125 129.945312 C 189.925781 129.9375 189.910156 129.910156 189.917969 129.882812 C 189.917969 129.878906 189.917969 129.875 189.921875 129.875 C 190.816406 128.164062 191.761719 126.472656 192.761719 124.804688 C 193.589844 123.421875 194.511719 122.117188 195.53125 120.890625 C 196.25 120.03125 197.066406 119.238281 197.988281 118.519531 C 199.019531 117.714844 200.152344 117.140625 201.382812 116.796875 C 201.925781 116.644531 202.464844 116.617188 203 116.710938 C 205.140625 117.101562 205.433594 119.28125 204.976562 121.023438 C 204.242188 123.84375 202.179688 126.394531 199.929688 128.191406 C 197.886719 129.824219 196.058594 131.117188 193.523438 132.847656 Z M 181.847656 133.039062 C 181.878906 133.050781 181.894531 133.089844 181.882812 133.121094 C 181.878906 133.121094 181.878906 133.125 181.878906 133.125 C 181.199219 134.433594 180.988281 135.804688 181.246094 137.242188 C 181.253906 137.289062 181.222656 137.332031 181.179688 137.339844 C 178.863281 137.832031 176.492188 138.222656 174.203125 138.332031 C 173.5 138.367188 172.605469 138.359375 171.515625 138.308594 C 169.960938 138.234375 168.464844 137.902344 167.027344 137.3125 C 165.402344 136.644531 162.753906 134.859375 163.515625 132.691406 C 164.132812 130.9375 165.878906 130.117188 167.617188 129.847656 C 168.816406 129.660156 170.027344 129.617188 171.257812 129.714844 C 173.101562 129.863281 174.855469 130.316406 176.703125 130.96875 C 178.300781 131.539062 180.015625 132.226562 181.847656 133.039062 Z M 194.292969 137.441406 C 194.269531 137.4375 194.25 137.414062 194.253906 137.390625 C 194.488281 135.917969 194.285156 134.519531 193.644531 133.195312 C 193.628906 133.160156 193.640625 133.121094 193.675781 133.105469 C 193.675781 133.105469 193.675781 133.105469 193.679688 133.105469 C 194.203125 132.914062 194.78125 132.675781 195.292969 132.433594 C 196.835938 131.699219 198.609375 130.949219 200.265625 130.472656 C 202.386719 129.863281 204.515625 129.613281 206.65625 129.726562 C 208.410156 129.820312 210.679688 130.40625 211.699219 132.007812 C 212.234375 132.851562 212.257812 133.703125 211.769531 134.566406 C 210.882812 136.132812 208.980469 137.167969 207.324219 137.699219 C 206.054688 138.109375 204.664062 138.328125 203.15625 138.355469 C 201.214844 138.394531 199.273438 138.257812 197.328125 137.949219 C 196.871094 137.875 195.859375 137.707031 194.292969 137.441406 Z M 182.808594 137.574219 C 182.039062 134.804688 183.632812 131.945312 186.363281 131.1875 C 189.09375 130.429688 191.933594 132.058594 192.699219 134.832031 C 193.46875 137.601562 191.878906 140.460938 189.144531 141.21875 C 186.414062 141.976562 183.578125 140.34375 182.808594 137.574219 Z M 181.285156 137.609375 C 181.300781 137.601562 181.316406 137.609375 181.320312 137.625 C 181.320312 137.625 181.320312 137.625 181.320312 137.628906 C 181.660156 139.089844 182.402344 140.308594 183.542969 141.285156 C 183.574219 141.308594 183.578125 141.355469 183.554688 141.382812 C 182.820312 142.257812 182.019531 143.214844 181.144531 144.25 C 179.601562 146.089844 177.933594 147.683594 176.144531 149.027344 C 174.929688 149.945312 173.640625 150.621094 172.277344 151.054688 C 171.035156 151.449219 169.472656 151.648438 168.292969 151.023438 C 167.3125 150.507812 166.824219 149.699219 166.824219 148.609375 C 166.824219 146.882812 167.90625 145.40625 169.0625 144.222656 C 170.480469 142.773438 172.085938 141.574219 173.882812 140.621094 C 176.21875 139.378906 178.695312 138.464844 181.285156 137.609375 Z M 194.183594 137.78125 C 195.546875 138.230469 196.578125 138.578125 197.269531 138.816406 C 198.945312 139.394531 200.539062 140.097656 202.058594 140.925781 C 203.769531 141.855469 205.242188 143.027344 206.671875 144.445312 C 208.132812 145.898438 209.886719 149.144531 207.621094 150.777344 C 206 151.949219 203.601562 151.3125 201.886719 150.515625 C 200.824219 150.023438 199.84375 149.417969 198.945312 148.695312 C 197.789062 147.769531 196.78125 146.871094 195.921875 145.992188 C 195.808594 145.875 195.328125 145.355469 194.492188 144.4375 C 193.613281 143.472656 192.550781 142.105469 192.003906 141.390625 C 191.988281 141.371094 191.992188 141.34375 192.007812 141.328125 C 193.097656 140.386719 193.808594 139.214844 194.136719 137.804688 C 194.140625 137.785156 194.160156 137.773438 194.179688 137.777344 C 194.179688 137.777344 194.183594 137.78125 194.183594 137.78125 Z M 183.703125 141.503906 C 183.71875 141.476562 183.753906 141.464844 183.78125 141.480469 C 183.785156 141.480469 183.785156 141.484375 183.789062 141.484375 C 184.871094 142.308594 186.097656 142.769531 187.46875 142.867188 C 187.496094 142.871094 187.515625 142.894531 187.515625 142.921875 C 187.359375 145.441406 187.230469 147.230469 187.136719 148.28125 C 186.921875 150.648438 186.476562 152.875 185.800781 154.96875 C 185.125 157.070312 183.777344 159.617188 181.605469 160.445312 C 180.671875 160.800781 179.847656 160.6875 179.128906 160.101562 C 178.265625 159.394531 177.921875 158.082031 177.871094 156.972656 C 177.824219 155.996094 177.878906 154.9375 178.03125 153.800781 C 178.136719 153.027344 178.292969 152.351562 178.496094 151.765625 C 179.042969 150.195312 179.609375 148.828125 180.199219 147.660156 C 181.214844 145.640625 182.367188 143.734375 183.558594 141.800781 C 183.617188 141.707031 183.652344 141.597656 183.703125 141.503906 Z M 187.792969 142.875 C 187.980469 142.875 188.230469 142.859375 188.53125 142.824219 C 189.734375 142.691406 190.804688 142.265625 191.742188 141.546875 C 191.769531 141.527344 191.804688 141.527344 191.828125 141.550781 C 191.855469 141.574219 191.875 141.613281 191.886719 141.660156 C 191.894531 141.699219 191.914062 141.738281 191.941406 141.785156 C 193.019531 143.550781 194.042969 145.3125 195.015625 147.074219 C 195.765625 148.429688 196.398438 149.855469 196.910156 151.347656 C 197.113281 151.941406 197.253906 152.421875 197.328125 152.789062 C 197.507812 153.667969 197.621094 154.578125 197.679688 155.523438 C 197.757812 156.855469 197.644531 158.355469 196.945312 159.464844 C 196.359375 160.398438 195.523438 160.773438 194.441406 160.59375 C 193.316406 160.40625 192.296875 159.433594 191.59375 158.519531 C 189.753906 156.121094 189.023438 153.117188 188.601562 150.160156 C 188.253906 147.71875 187.929688 145.339844 187.746094 142.925781 C 187.742188 142.902344 187.761719 142.878906 187.785156 142.875 C 187.789062 142.875 187.789062 142.875 187.792969 142.875 Z"/>
  </g>
</svg>
